<svg xmlns="http://www.w3.org/2000/svg" viewBox="0 0 400 300" width="406" height="306" class="illustration styles_illustrationTablet__1DWOa"><g id="_491_phone_maintenance_outline" data-name="#491_phone_maintenance_outline"><g id="ahcQ9Z"><path d="M279.51,194.87a2.51,2.51,0,0,0-1.29-2.76c-.86-.43-1.74-.81-2.62-1.19a.64.64,0,0,1-.43-.59c-.08-.8-.2-1.6-.33-2.4a.49.49,0,0,1,.19-.54c.75-.61,1.51-1.22,2.22-1.88a2.49,2.49,0,0,0,.55-3c-.6-1.14-1.28-2.24-1.93-3.35a2.67,2.67,0,0,0-3.43-1.23c-.81.3-1.62.61-2.42.93a.5.5,0,0,1-.57-.08c-.69-.55-1.39-1.07-2.1-1.58a.5.5,0,0,1-.25-.52c.09-.87.17-1.74.24-2.62a2.62,2.62,0,0,0-1.87-2.8c-1.28-.37-2.58-.7-3.88-1a2.51,2.51,0,0,0-2.84,1.31c-.45.88-.84,1.8-1.24,2.71a.51.51,0,0,1-.47.34c-.83.1-1.66.23-2.49.37a.46.46,0,0,1-.51-.18c-.6-.75-1.21-1.49-1.85-2.21a2.5,2.5,0,0,0-3-.57c-1.22.65-2.42,1.34-3.58,2.08a2.57,2.57,0,0,0-1,3.26c.32.86.66,1.71,1,2.57a.49.49,0,0,1-.06.39c-.52.73-1,1.46-1.6,2.17a.5.5,0,0,1-.37.17c-.88-.06-1.75-.14-2.63-.22a2.62,2.62,0,0,0-2.86,1.78c-.39,1.34-.73,2.69-1,4a2.49,2.49,0,0,0,1.28,2.73c.91.46,1.84.86,2.77,1.28a.48.48,0,0,1,.32.43c.1.85.23,1.69.38,2.53a.46.46,0,0,1-.17.48c-.69.56-1.38,1.13-2.05,1.71a2.63,2.63,0,0,0-.59,3.48c.59,1,1.2,2.07,1.82,3.09a2.63,2.63,0,0,0,3.42,1.16c.83-.31,1.66-.62,2.49-1a.41.41,0,0,1,.47.08c.63.49,1.27,1,1.93,1.45a.56.56,0,0,1,.27.61c-.08.86-.16,1.72-.23,2.59a2.6,2.6,0,0,0,1.76,2.77c1.35.4,2.71.74,4.08,1.05a2.52,2.52,0,0,0,2.75-1.31c.43-.87.82-1.76,1.21-2.65a.54.54,0,0,1,.51-.38c.83-.1,1.67-.22,2.5-.35a.43.43,0,0,1,.47.17l1.71,2.05a2.82,2.82,0,0,0,1.57.95,2.22,2.22,0,0,0,1.66-.23c1.11-.61,2.19-1.25,3.28-1.9a2.66,2.66,0,0,0,1.24-3.48q-.45-1.22-.93-2.43a.43.43,0,0,1,.08-.5c.53-.67,1-1.35,1.54-2a.5.5,0,0,1,.52-.24c.88.09,1.75.17,2.63.24a2.62,2.62,0,0,0,2.82-1.83C278.86,197.53,279.2,196.2,279.51,194.87Zm-23.58,5.6a9.25,9.25,0,1,1,11.28-6.62A9.26,9.26,0,0,1,255.93,200.47Z" fill="#70cc40" stroke="#093f68" stroke-linecap="round" stroke-linejoin="round" stroke-width="2"></path></g><g id="ahcQ9Z-2" data-name="ahcQ9Z"><path d="M288.94,122.05a4.37,4.37,0,0,0-3.38-4.08c-1.63-.35-3.29-.61-4.94-.87a1.09,1.09,0,0,1-1-.81c-.49-1.32-1-2.61-1.61-3.89a.86.86,0,0,1,.09-1c1-1.37,2-2.73,2.93-4.15a4.33,4.33,0,0,0-.39-5.28c-1.5-1.66-3.12-3.22-4.71-4.81a4.63,4.63,0,0,0-6.31-.58q-1.86,1.29-3.69,2.63a.83.83,0,0,1-1,.1c-1.4-.61-2.81-1.2-4.24-1.74a.85.85,0,0,1-.63-.77c-.24-1.51-.49-3-.75-4.52A4.58,4.58,0,0,0,255,88.37q-3.48-.08-7,0a4.4,4.4,0,0,0-4.22,3.45c-.38,1.69-.63,3.4-.92,5.11a.86.86,0,0,1-.63.77q-2,.81-4,1.71a.78.78,0,0,1-.93-.07c-1.34-1-2.69-2-4.08-2.92a4.36,4.36,0,0,0-5.34.35c-1.78,1.62-3.5,3.31-5.13,5.07a4.47,4.47,0,0,0-.3,5.94c.91,1.31,1.85,2.59,2.75,3.9a.9.9,0,0,1,.08.7c-.57,1.46-1.15,2.91-1.77,4.35a.87.87,0,0,1-.55.46c-1.5.28-3,.52-4.52.76a4.57,4.57,0,0,0-4,4.25c-.08,2.42-.07,4.85,0,7.28a4.36,4.36,0,0,0,3.36,4c1.72.39,3.48.66,5.23.95a.82.82,0,0,1,.72.6q.82,2.07,1.74,4.11a.74.74,0,0,1-.08.87c-.92,1.25-1.83,2.5-2.71,3.78a4.58,4.58,0,0,0,.53,6.13c1.45,1.48,2.92,3,4.41,4.41a4.58,4.58,0,0,0,6.27.48c1.27-.89,2.54-1.78,3.79-2.7a.73.73,0,0,1,.82-.07c1.29.56,2.58,1.12,3.9,1.6a1,1,0,0,1,.72.91c.23,1.49.47,3,.74,4.47A4.5,4.5,0,0,0,248,163c2.44.09,4.89.08,7.34,0a4.39,4.39,0,0,0,4.06-3.42c.36-1.65.61-3.32.89-5a1,1,0,0,1,.69-.87c1.37-.52,2.72-1.09,4.06-1.68a.77.77,0,0,1,.88.09c1.25.92,2.52,1.8,3.78,2.71a4.77,4.77,0,0,0,3.05.92,4,4,0,0,0,2.71-1.1c1.6-1.52,3.15-3.08,4.7-4.64a4.64,4.64,0,0,0,.58-6.41c-.87-1.24-1.74-2.47-2.63-3.69A.77.77,0,0,1,278,139c.6-1.36,1.17-2.73,1.71-4.12a.86.86,0,0,1,.78-.62c1.51-.23,3-.48,4.53-.74a4.55,4.55,0,0,0,3.95-4.33Q289,125.64,288.94,122.05Zm-37.33,19.73a16.11,16.11,0,1,1,16.14-16.08A16.12,16.12,0,0,1,251.61,141.78Z" fill="#f56132" stroke="#093f68" stroke-linecap="round" stroke-linejoin="round" stroke-width="2"></path></g><rect x="145.62" y="65.46" width="104.45" height="169.08" rx="15.08" fill="#68e1fd"></rect><path d="M235,235.54H160.71a16.1,16.1,0,0,1-16.09-16.08V80.54a16.1,16.1,0,0,1,16.09-16.08H235a16.1,16.1,0,0,1,16.09,16.08V219.46A16.1,16.1,0,0,1,235,235.54ZM160.71,66.46a14.1,14.1,0,0,0-14.09,14.08V219.46a14.1,14.1,0,0,0,14.09,14.08H235a14.1,14.1,0,0,0,14.09-14.08V80.54A14.1,14.1,0,0,0,235,66.46Z" fill="#093f68"></path><rect x="145.62" y="84.98" width="104.45" height="120.84" fill="#fff"></rect><path d="M250.08,206.82H145.62a1,1,0,0,1-1-1V85a1,1,0,0,1,1-1H250.08a1,1,0,0,1,1,1V205.82A1,1,0,0,1,250.08,206.82Zm-103.46-2H249.08V86H146.62Z" fill="#093f68"></path><circle cx="197.85" cy="220.32" r="6.31" fill="#093f68"></circle><path d="M201.22,77.78H188.35a1,1,0,0,1,0-2h12.87a1,1,0,0,1,0,2Z" fill="#093f68"></path><path d="M207.34,77.78H205a1,1,0,0,1,0-2h2.37a1,1,0,0,1,0,2Z" fill="#093f68"></path><path d="M205,126.29a22.3,22.3,0,0,1-9.86,18.53v61h-25v-61a22.34,22.34,0,0,1,3.07-38.8v16.51l9.4,6.34,9.41-6.34V106A22.35,22.35,0,0,1,205,126.29Z" fill="#093f68"></path><path d="M195.11,206.82h-25a1,1,0,0,1-1-1V145.34a23.33,23.33,0,0,1,3.64-40.22,1,1,0,0,1,1.43.9v16l8.4,5.67L191,122V106a1,1,0,0,1,1.42-.9,23.34,23.34,0,0,1,3.65,40.22v60.48A1,1,0,0,1,195.11,206.82Zm-24-2h23v-60a1,1,0,0,1,.44-.83A21.34,21.34,0,0,0,193,107.66v14.87a1,1,0,0,1-.44.83l-9.41,6.34a1,1,0,0,1-1.12,0l-9.4-6.34a1,1,0,0,1-.44-.83V107.66A21.34,21.34,0,0,0,170.71,144a1,1,0,0,1,.45.83Z" fill="#093f68"></path><rect x="221.88" y="128.35" width="7.44" height="62.99" fill="#68e1fd"></rect><path d="M229.32,192.33h-7.44a1,1,0,0,1-1-1v-63a1,1,0,0,1,1-1h7.44a1,1,0,0,1,1,1v63A1,1,0,0,1,229.32,192.33Zm-6.44-2h5.44v-61h-5.44Z" fill="#093f68"></path><polygon points="221.88 128.35 229.32 128.35 232.19 120.54 219.01 120.54 221.88 128.35" fill="#68e1fd"></polygon><path d="M229.32,129.35h-7.44a1,1,0,0,1-.94-.66l-2.86-7.81a1,1,0,0,1,.11-.91,1,1,0,0,1,.82-.43h13.18a1,1,0,0,1,.82.43,1,1,0,0,1,.12.91l-2.87,7.81A1,1,0,0,1,229.32,129.35Zm-6.74-2h6l2.13-5.81H220.45Z" fill="#093f68"></path><polygon points="221.88 108.67 229.32 108.67 232.19 120.54 219.01 120.54 221.88 108.67" fill="#68e1fd"></polygon><path d="M232.19,121.54H219a1,1,0,0,1-.78-.38,1,1,0,0,1-.19-.86l2.87-11.87a1,1,0,0,1,1-.76h7.44a1,1,0,0,1,1,.76l2.86,11.87a1,1,0,0,1-.18.86A1,1,0,0,1,232.19,121.54Zm-11.91-2h10.64l-2.38-9.87h-5.87Z" fill="#093f68"></path><polygon points="219.14 183.18 232.07 183.18 234.05 205.82 217.16 205.82 219.14 183.18" fill="#093f68"></polygon><path d="M234.05,206.82H217.16a1,1,0,0,1-1-1.09l2-22.64a1,1,0,0,1,1-.91h12.93a1,1,0,0,1,1,.91l2,22.64a1,1,0,0,1-1,1.09Zm-15.8-2H233l-1.81-20.64H220.06Z" fill="#093f68"></path><path d="M188.35,97.58H160.29a1,1,0,0,1,0-2h28.06a1,1,0,0,1,0,2Z" fill="#dfeaef"></path><path d="M205,97.58h-7.12a1,1,0,0,1,0-2H205a1,1,0,0,1,0,2Z" fill="#dfeaef"></path><path d="M185.53,163.66v28.92a3.84,3.84,0,0,1-3.83,3.83H135.29a3.83,3.83,0,0,1-3.82-3.83V163.66a3.82,3.82,0,0,1,3.82-3.82H181.7A3.83,3.83,0,0,1,185.53,163.66Z" fill="#fff"></path><path d="M181.7,197.41H135.29a4.82,4.82,0,0,1-4.82-4.83V163.66a4.82,4.82,0,0,1,4.82-4.82H181.7a4.83,4.83,0,0,1,4.83,4.82v28.92A4.83,4.83,0,0,1,181.7,197.41Zm-46.41-36.57a2.82,2.82,0,0,0-2.82,2.82v28.92a2.83,2.83,0,0,0,2.82,2.83H181.7a2.83,2.83,0,0,0,2.83-2.83V163.66a2.83,2.83,0,0,0-2.83-2.82Z" fill="#093f68"></path><path d="M185.53,163.66V167H131.47v-3.31a3.82,3.82,0,0,1,3.82-3.82H181.7A3.83,3.83,0,0,1,185.53,163.66Z" fill="#ffbc0e"></path><path d="M185.53,168H131.47a1,1,0,0,1-1-1v-3.31a4.82,4.82,0,0,1,4.82-4.82H181.7a4.83,4.83,0,0,1,4.83,4.82V167A1,1,0,0,1,185.53,168Zm-53.06-2h52.06v-2.31a2.83,2.83,0,0,0-2.83-2.82H135.29a2.82,2.82,0,0,0-2.82,2.82Z" fill="#093f68"></path><path d="M159.16,191.33a1,1,0,0,1-.92-.6L151,174l-5.2,8.72a1,1,0,0,1-.86.49h-5.82a1,1,0,0,1,0-2h5.25l5.91-9.91a1,1,0,0,1,1.77.12l7.1,16.3,5.32-13.82a1,1,0,0,1,.8-.64,1,1,0,0,1,.93.4l4.77,6.43h7a1,1,0,0,1,0,2h-7.51a1,1,0,0,1-.8-.41l-4-5.37-5.54,14.41a1,1,0,0,1-.91.64Z" fill="#dfeaef"></path></g></svg>